<svg width="648" height="637" viewBox="0 0 648 637" fill="none" xmlns="http://www.w3.org/2000/svg">
<path fill-rule="evenodd" clip-rule="evenodd" d="M305.905 2.04769C341.149 -4.88386 376.635 7.63016 412.259 12.2257C454.747 17.7068 517.39 -5.47254 538.14 32.0067C563.666 78.1113 506.1 133.267 508.421 185.915C509.724 215.462 531.37 240.094 548.383 264.287C578.472 307.072 647.205 331.712 647.735 384.015C648.181 427.98 578.722 437.752 550.484 471.453C523.702 503.417 516.816 549.419 485.794 577.286C453.797 606.03 410.009 650.323 370.633 633.016C314.715 608.439 325.718 505.758 269.377 482.167C227.928 464.812 186.716 564.595 148.976 540.205C110.735 515.491 154.642 450.028 149.624 404.774C146.999 381.099 138.515 358.378 126.532 337.792C110.707 310.607 84.7134 291.428 68.097 264.72C41.993 222.76 -1.16794 183.847 0.0241824 134.445C1.04732 92.0456 34.1772 47.4066 73.7115 32.0512C118.269 14.7447 167.205 57.2238 214.611 51.098C249.166 46.6329 271.718 8.77147 305.905 2.04769Z" fill="#353BFC"/>
</svg>
