<svg width="613" height="682" viewBox="0 0 613 682" fill="none" xmlns="http://www.w3.org/2000/svg">
<path fill-rule="evenodd" clip-rule="evenodd" d="M279.742 4.13405C319.623 -19.6126 350.535 64.9481 374.049 104.968C393.164 137.502 367.348 200.392 402.741 213.477C465.584 236.713 544.418 152.007 600.486 188.689C638.993 213.881 571.627 275.796 568.127 321.678C565.226 359.716 585.262 396.342 581.751 434.329C578.008 474.835 585.375 536.717 547.006 550.229C491.471 569.786 427.158 474.651 377.486 506.262C326.969 538.41 401.267 673.165 341.873 680.773C280.489 688.636 308.182 532.971 247.111 522.962C184.199 512.651 162.207 645.613 98.6297 640.907C53.284 637.55 80.3536 552.824 66.309 509.578C56.1803 478.389 26.7101 453.105 26.9907 420.314C27.2791 386.61 71.7468 362.246 67.8563 328.766C62.6111 283.628 -15.0263 252.284 2.59758 210.399C19.4719 170.295 85.6999 185.994 129.117 183.173C160.182 181.155 200.748 220.045 220.788 196.223C264.277 144.531 221.7 38.6944 279.742 4.13405Z" fill="#FFEA00"/>
</svg>
