<svg width="605" height="567" viewBox="0 0 605 567" fill="none" xmlns="http://www.w3.org/2000/svg">
<path fill-rule="evenodd" clip-rule="evenodd" d="M285.393 24.817C315.583 28.0826 348.224 21.009 375.129 35.0875C402.026 49.1615 405.929 93.2581 434.699 102.943C487.148 120.6 570.955 62.8695 599.137 110.498C625.973 155.85 547.14 200.66 518.812 245.095C502.568 270.575 474.434 289.098 466.66 318.299C458.708 348.169 497.655 388.898 474.945 409.867C449.412 433.442 394.332 379.702 371.647 406.029C336.1 447.282 392.413 546.681 341.172 565.113C294.796 581.794 296.334 469.258 251.258 449.332C219.256 435.186 187.31 482.18 152.325 481.636C115.21 481.06 71.0226 475.102 47.7668 446.171C24.763 417.554 41.2067 373.955 36.4956 337.541C32.3341 305.376 26.7505 274.247 21.3854 242.26C14.7672 202.802 -4.22716 164.725 0.852941 125.04C6.22165 83.1002 14.7232 31.2409 51.1468 9.76811C90.7525 -13.5807 141.925 11.8773 187.807 14.8249C220.718 16.9392 252.605 21.2703 285.393 24.817Z" fill="#A31545"/>
</svg>
