<svg width="560" height="615" viewBox="0 0 560 615" fill="none" xmlns="http://www.w3.org/2000/svg">
<path fill-rule="evenodd" clip-rule="evenodd" d="M169.301 627.836C126.494 640.316 86.4413 670.798 42.1566 665.588C-1.41563 660.463 -52.8251 639.811 -70.4464 599.633C-91.4863 551.659 -64.4122 496.097 -54.7597 444.61C-48.7542 412.576 -11.8247 382.805 -24.1399 352.63C-41.9244 309.053 -110.097 303.523 -129.787 260.773C-147.196 222.974 -141.55 174.596 -123.382 137.156C-105.385 100.071 -66.7346 76.9623 -30.7937 56.7781C4.05705 37.2061 43.8782 11.9614 82.7151 21.413C126.834 32.1499 146.81 85.1405 185.224 109.349C208.262 123.868 235.285 130.442 262.208 134.53C301.819 140.544 357.464 106.908 381.29 139.118C406.041 172.579 335.838 223.222 355.104 260.114C379.357 306.555 475.014 291.504 487.45 342.4C497.697 384.341 435.855 414.105 397.637 434.19C362.12 452.855 303.67 419.562 279.577 451.645C250.064 490.947 300.881 556.099 274.805 597.761C255.238 629.025 204.71 617.513 169.301 627.836Z" fill="#A31545"/>
<path fill-rule="evenodd" clip-rule="evenodd" d="M323.743 303.806C364.624 293.476 400.821 218.587 434.186 244.37C474.899 275.83 414.45 355.253 444.431 397.067C466.489 427.831 537.296 380.878 555.76 413.925C573.634 445.918 518.277 476.901 508.816 512.306C502.709 535.159 511.748 559.011 510.674 582.642C509.425 610.126 514.509 639.545 501.921 664.009C489.325 688.486 458.842 697.699 440.778 718.472C416.244 746.686 409.621 792.552 375.971 808.849C344.762 823.963 307.732 796.017 273.242 799.612C225.681 804.57 160.134 874.757 135.211 833.945C100.616 777.294 217.365 692.951 176.273 640.82C134.043 587.245 0.732563 691.685 -26.2954 629.05C-51.3778 570.924 105.89 572.28 120.073 510.583C131.809 459.527 20.8182 434.828 30.199 383.288C37.9286 340.82 111.513 357.278 151.106 340.081C179.9 327.574 202.272 301.661 232.994 295.205C262.985 288.903 294.031 311.313 323.743 303.806Z" fill="#B2A300"/>
</svg>
