<svg width="585" height="646" viewBox="0 0 585 646" fill="none" xmlns="http://www.w3.org/2000/svg">
<path fill-rule="evenodd" clip-rule="evenodd" d="M239.825 -56.3344C282.741 -66.8845 329.553 -88.7107 370.368 -71.7645C411.439 -54.7122 442.396 -11.3641 452.464 31.9516C463.298 78.5598 414.254 125.876 427.027 171.99C436.674 206.816 512.666 204.109 510.137 240.158C507.316 280.368 444.309 285.999 416.951 315.602C401.577 332.239 384.157 352.518 385.397 375.136C389.154 443.687 479.292 525.242 431.121 574.159C389.412 616.515 335.34 504.347 280.321 481.84C255.244 471.582 225.438 470.863 199.763 479.518C148.866 496.676 106.494 582.474 59.6269 556.236C14.1344 530.768 71.0344 452.069 59.7939 401.159C53.5295 372.787 19.7136 357.967 9.81884 330.648C-0.224628 302.919 -2.42864 272.285 2.5903 243.223C7.51703 214.694 18.668 186.076 38.4384 164.927C57.7019 144.32 99.4349 150.567 112.553 125.594C134.457 83.8927 104.983 25.435 131.985 -13.1622C154.371 -45.1618 201.902 -47.0116 239.825 -56.3344Z" fill="#FFEE33"/>
<path fill-rule="evenodd" clip-rule="evenodd" d="M411.58 38.4161C453.19 41.5758 498.11 65.1342 518.429 101.583C542.583 144.911 494.623 212.851 528.841 248.764C559.801 281.256 621.218 234.449 662.282 252.559C701.619 269.908 755.509 303.51 749.5 346.081C742.53 395.455 658.631 396.894 635.661 441.151C618.473 474.266 659.545 518.63 642.672 551.907C626.763 583.281 585.236 592.068 552.547 605.064C522.316 617.083 489.776 618.697 457.932 625.356C425.564 632.125 394.305 649.579 361.554 645.006C328.711 640.42 305.918 608.5 273.954 599.668C229.821 587.473 149.805 627.866 138.733 583.438C124.071 524.603 243.962 487.982 231.341 428.676C219.844 374.648 108.711 398.872 88.5174 347.458C73.8069 310.004 126.849 272.051 162.483 253.358C200.171 233.588 261.904 275.638 288.607 242.499C321.921 201.156 270.85 130.342 298.253 84.8642C319.504 49.5962 370.522 35.2984 411.58 38.4161Z" fill="#ED4B82"/>
</svg>
