<svg width="314" height="980" viewBox="0 0 314 980" fill="none" xmlns="http://www.w3.org/2000/svg" preserveAspectRatio="none">
<path fill-rule="evenodd" clip-rule="evenodd" d="M157 -1.87221e-06L170.083 32.6667C183.167 65.3333 209.333 130.667 202.792 196C196.25 261.333 157 326.667 111.208 392C65.4167 457.333 13.0833 522.667 13.0833 588C13.0833 653.333 65.4167 718.667 71.9583 784C78.5 849.333 39.25 914.667 19.625 947.333L1.16864e-05 980L314 980L314 947.333C314 914.667 314 849.333 314 784C314 718.667 314 653.333 314 588C314 522.667 314 457.333 314 392C314 326.667 314 261.333 314 196C314 130.667 314 65.3333 314 32.6667L314 -3.74441e-06L157 -1.87221e-06Z" fill="#E91E63"/>
</svg>
