<svg width="296" height="980" viewBox="0 0 296 980" fill="none" xmlns="http://www.w3.org/2000/svg" preserveAspectRatio="none">
<path fill-rule="evenodd" clip-rule="evenodd" d="M296 0L271.333 40.8333C246.667 81.6667 197.333 163.333 187.467 245C177.6 326.667 207.2 408.333 197.333 490C187.467 571.667 138.133 653.333 113.467 735C88.8 816.667 88.8 898.333 88.8 939.167L88.8 980L-3.73651e-06 980L-1.95163e-06 939.167C-1.6675e-07 898.333 3.40301e-06 816.667 6.97278e-06 735C1.05425e-05 653.333 1.41123e-05 571.667 1.76821e-05 490C2.12518e-05 408.333 2.48216e-05 326.667 2.83914e-05 245C3.19611e-05 163.333 3.55309e-05 81.6667 3.73158e-05 40.8333L3.91006e-05 -1.29386e-05L296 0Z" fill="#FFEA00"/>
</svg>
